<?xml version="1.0" encoding="utf-8"?>
<!DOCTYPE svg PUBLIC "-//W3C//DTD SVG 1.1//EN" "http://www.w3.org/Graphics/SVG/1.1/DTD/svg11.dtd">
<svg version="1.1" id="Layer_1" xmlns="http://www.w3.org/2000/svg" xmlns:xlink="http://www.w3.org/1999/xlink" x="0px" y="0px" viewBox="245.1 359.4 120.3 60" enable-background="new 245.1 359.4 120.3 60" xml:space="preserve">
	<rect fill="#FFFFFF" x="245.5" y="394" width="119.7" height="25.4"/>
	<path fill="#FFFFFF" d="M245.1,377.6l16.2-6.9v3.4l-11.7,4.8l11.7,4.8v3.4l-16.2-6.9V377.6z"/>
	<path fill="#FFFFFF" d="M281.4,388.3c-1,0.5-3.1,1.2-5.8,1.2c-6.1,0-10.1-4.1-10.1-10.3c0-6.2,4.3-10.8,10.9-10.8c2.2,0,4.1,0.5,5.1,1.1l-0.8,2.8 c-0.9-0.5-2.3-1-4.3-1c-4.6,0-7.1,3.5-7.1,7.7c0,4.7,3,7.6,7,7.6c2.1,0,3.5-0.5,4.5-1L281.4,388.3z"/>
	<path fill="#FFFFFF" d="M292,389.5c-5.4,0-9.7-4-9.7-10.4c0-6.8,4.5-10.7,10-10.7c5.8,0,9.7,4.2,9.7,10.4C302.1,386.2,296.9,389.5,292,389.5 L292,389.5L292,389.5z M292.2,386.7c3.5,0,6.1-3.3,6.1-7.9c0-3.4-1.7-7.7-6.1-7.7c-4.3,0-6.2,4-6.2,7.8 C286.1,383.4,288.6,386.7,292.2,386.7L292.2,386.7z"/>
	<path fill="#FFFFFF" d="M322.6,359.4v24.4c0,1.8,0,3.8,0.2,5.2h-3.3l-0.2-3.5h-0.1c-1.1,2.3-3.5,4-6.8,4c-4.9,0-8.7-4.1-8.7-10.3 c0-6.8,4.2-10.9,9.1-10.9c3.1,0,5.2,1.5,6.1,3h0.1v-12H322.6z M318.9,377.1c0-0.5,0-1.1-0.2-1.6c-0.5-2.3-2.5-4.2-5.3-4.2 c-3.8,0-6.1,3.3-6.1,7.8c0,4.1,2,7.5,6,7.5c2.5,0,4.7-1.7,5.4-4.4c0.1-0.5,0.2-1,0.2-1.6V377.1z"/>
	<path fill="#FFFFFF" d="M329.1,379.6c0.1,5,3.2,7,6.9,7c2.6,0,4.3-0.5,5.6-1l0.7,2.6c-1.3,0.6-3.5,1.3-6.8,1.3c-6.2,0-9.9-4.1-9.9-10.2 c0-6.1,3.6-10.9,9.5-10.9c6.6,0,8.3,5.8,8.3,9.5c0,0.8,0,1.3-0.1,1.8L329.1,379.6z M339.8,376.9c0-2.3-1-6-5.1-6 c-3.8,0-5.3,3.4-5.6,6H339.8z"/>
	<path fill="#FFFFFF" d="M365.4,380l-16.2,6.9v-3.4l11.7-4.8l-11.7-4.8v-3.4l16.2,6.9V380z"/>
	<path fill="#000000" d="M253.5,399.4h2.9V412h3.9v2.5h-6.8V399.4z"/>
	<path fill="#000000" d="M272.7,406.7c0,5.7-2,8-4.9,8c-3.4,0-4.8-3.6-4.8-7.8c0-4.1,1.6-7.7,5-7.7 C271.6,399.2,272.7,403.2,272.7,406.7z M266,406.9c0,3.4,0.7,5.2,1.8,5.2c1.3,0,1.7-2.2,1.7-5.3c0-2.7-0.4-5.1-1.8-5.1 C266.7,401.8,266,403.7,266,406.9z"/>
	<path fill="#000000" d="M279.6,399.4v9.8c0,2.2,0.7,2.9,1.4,2.9c0.9,0,1.5-0.6,1.5-2.9v-9.8h2.9v9.3c0,3.9-1.5,6-4.4,6 c-3.2,0-4.4-2.2-4.4-6v-9.3H279.6z"/>
	<path fill="#000000" d="M293.2,399.4v15.1h-2.9v-15.1H293.2z"/>
	<path fill="#000000" d="M297.7,411.5c0.6,0.3,1.7,0.6,2.5,0.6c1.4,0,2.1-0.7,2.1-1.7c0-1.1-0.7-1.6-2-2.5c-2.1-1.3-2.9-2.9-2.9-4.2 c0-2.4,1.6-4.4,4.8-4.4c1,0,2,0.3,2.4,0.5l-0.5,2.5c-0.4-0.3-1.1-0.5-1.9-0.5c-1.3,0-1.9,0.8-1.9,1.6c0,0.9,0.4,1.4,2.1,2.4 c2,1.2,2.7,2.7,2.7,4.3c0,2.8-2,4.6-5,4.6c-1.2,0-2.4-0.3-2.9-0.6L297.7,411.5z"/>
	<path fill="#000000" d="M311.3,414.5l-3.4-15.1h3.3l1.1,6.5c0.2,1.6,0.6,3.5,0.8,5.3h0c0.2-1.8,0.4-3.6,0.7-5.3l1-6.5h3.2l-3.5,15.1 L311.3,414.5L311.3,414.5z"/>
	<path fill="#000000" d="M324.5,399.4v15.1h-2.9v-15.1H324.5z"/>
	<path fill="#000000" d="M329.4,399.4h2.9V412h3.9v2.5h-6.8L329.4,399.4L329.4,399.4z"/>
	<path fill="#000000" d="M340.2,399.4h2.9V412h3.9v2.5h-6.8V399.4z"/>
	<path fill="#000000" d="M357.3,407.9h-3.4v4.1h3.9v2.6H351v-15.1h6.6v2.6h-3.6v3.5h3.4V407.9z"/>
</svg>
