<?xml version="1.0" standalone="no"?>
<!DOCTYPE svg PUBLIC "-//W3C//DTD SVG 1.1//EN" "http://www.w3.org/Graphics/SVG/1.1/DTD/svg11.dtd">
<svg width="100%" height="100%" viewBox="0 0 121 60" version="1.1" xmlns="http://www.w3.org/2000/svg" xmlns:xlink="http://www.w3.org/1999/xlink" xml:space="preserve" style="fill-rule:evenodd;clip-rule:evenodd;stroke-linejoin:round;stroke-miterlimit:1.41421;">
    <path d="M0,18.2l16.2,-6.9l0,3.4l-11.7,4.8l11.7,4.8l0,3.4l-16.2,-6.9l0,-2.6l0,0Z" style="fill:#fff;fill-rule:nonzero;"/>
    <path d="M36.3,28.9c-1,0.5 -3.1,1.2 -5.8,1.2c-6.1,0 -10.1,-4.1 -10.1,-10.3c0,-6.2 4.3,-10.8 10.9,-10.8c2.2,0 4.1,0.5 5.1,1.1l-0.8,2.8c-0.9,-0.5 -2.3,-1 -4.3,-1c-4.6,0 -7.1,3.5 -7.1,7.7c0,4.7 3,7.6 7,7.6c2.1,0 3.5,-0.5 4.5,-1l0.6,2.7Z" style="fill:#fff;fill-rule:nonzero;"/>
    <path d="M46.9,30.1c-5.4,0 -9.7,-4 -9.7,-10.4c0,-6.8 4.5,-10.7 10,-10.7c5.8,0 9.7,4.2 9.7,10.4c0.1,7.4 -5.1,10.7 -10,10.7ZM47.1,27.3c3.5,0 6.1,-3.3 6.1,-7.9c0,-3.4 -1.7,-7.7 -6.1,-7.7c-4.3,0 -6.2,4 -6.2,7.8c0.1,4.5 2.6,7.8 6.2,7.8Z" style="fill:#fff;fill-rule:nonzero;"/>
    <path d="M77.5,0l0,24.4c0,1.8 0,3.8 0.2,5.2l-3.3,0l-0.2,-3.5l-0.1,0c-1.1,2.3 -3.5,4 -6.8,4c-4.9,0 -8.7,-4.1 -8.7,-10.3c0,-6.8 4.2,-10.9 9.1,-10.9c3.1,0 5.2,1.5 6.1,3l0.1,0l0,-12l3.6,0l0,0.1ZM73.8,17.7c0,-0.5 0,-1.1 -0.2,-1.6c-0.5,-2.3 -2.5,-4.2 -5.3,-4.2c-3.8,0 -6.1,3.3 -6.1,7.8c0,4.1 2,7.5 6,7.5c2.5,0 4.7,-1.7 5.4,-4.4c0.1,-0.5 0.2,-1 0.2,-1.6l0,-3.5l0,0Z" style="fill:#fff;fill-rule:nonzero;"/>
    <path d="M84,20.2c0.1,5 3.2,7 6.9,7c2.6,0 4.3,-0.5 5.6,-1l0.7,2.6c-1.3,0.6 -3.5,1.3 -6.8,1.3c-6.2,0 -9.9,-4.1 -9.9,-10.2c0,-6.1 3.6,-10.9 9.5,-10.9c6.6,0 8.3,5.8 8.3,9.5c0,0.8 0,1.3 -0.1,1.8l-14.2,-0.1ZM94.7,17.5c0,-2.3 -1,-6 -5.1,-6c-3.8,0 -5.3,3.4 -5.6,6l10.7,0Z" style="fill:#fff;fill-rule:nonzero;"/>
    <path d="M120.3,20.6l-16.2,6.9l0,-3.4l11.7,-4.8l-11.7,-4.8l0,-3.4l16.2,6.9l0,2.6Z" style="fill:#fff;fill-rule:nonzero;"/>
    <path d="M120.1,34.6l-119.7,0l0,25.4l119.7,0l0,-25.4ZM52.6,52.1c0.6,0.3 1.7,0.6 2.5,0.6c1.4,0 2.1,-0.7 2.1,-1.7c0,-1.1 -0.7,-1.6 -2,-2.5c-2.1,-1.3 -2.9,-2.9 -2.9,-4.2c0,-2.4 1.6,-4.4 4.8,-4.4c1,0 2,0.3 2.4,0.5l-0.5,2.5c-0.4,-0.3 -1.1,-0.5 -1.9,-0.5c-1.3,0 -1.9,0.8 -1.9,1.6c0,0.9 0.4,1.4 2.1,2.4c2,1.2 2.7,2.7 2.7,4.3c0,2.8 -2,4.6 -5,4.6c-1.2,0 -2.4,-0.3 -2.9,-0.6l0.5,-2.6ZM27.6,47.3c0,5.7 -2,8 -4.9,8c-3.4,0 -4.8,-3.6 -4.8,-7.8c0,-4.1 1.6,-7.7 5,-7.7c3.6,0 4.7,4 4.7,7.5ZM105.9,55.2l6.8,0l0,-2.6l-3.9,0l0,-4.1l3.5,0l0,-2.3l-3.4,0l0,-3.5l3.6,0l0,-2.6l-6.6,0l0,15.1ZM84.3,40l2.9,0l0,12.6l3.9,0l0,2.5l-6.8,0l0,-15.1ZM48.1,40l0,15.1l-2.9,0l0,-15.1l2.9,0ZM8.4,55.1l6.8,0l0,-2.5l-3.9,0l0,-12.6l-2.9,0l0,15.1ZM79.4,40l0,15.1l-2.9,0l0,-15.1l2.9,0ZM95.1,55.1l6.8,0l0,-2.5l-3.9,0l0,-12.6l-2.9,0l0,15.1ZM20.9,47.5c0,3.4 0.7,5.2 1.8,5.2c1.3,0 1.7,-2.2 1.7,-5.3c0,-2.7 -0.4,-5.1 -1.8,-5.1c-1,0.1 -1.7,2 -1.7,5.2ZM34.5,40l0,9.8c0,2.2 0.7,2.9 1.4,2.9c0.9,0 1.5,-0.6 1.5,-2.9l0,-9.8l2.9,0l0,9.3c0,3.9 -1.5,6 -4.4,6c-3.2,0 -4.4,-2.2 -4.4,-6l0,-9.3l3,0ZM66.2,55.1l-3.4,-15.1l3.3,0l1.1,6.5c0.2,1.6 0.6,3.5 0.8,5.3c0.2,-1.8 0.4,-3.6 0.7,-5.3l1,-6.5l3.2,0l-3.5,15.1l-3.2,0Z" style="fill:#fff;"/>
</svg>
